<svg xmlns="http://www.w3.org/2000/svg" width="3000" height="150"><path d="M1573,104L1726,-134L1506,23Z" fill="#3a3a3a" stroke="#3a3a3a" stroke-width="1.51"/><path d="M1726,-134L1434,-190L1506,23Z" fill="#343434" stroke="#343434" stroke-width="1.51"/><path d="M1573,104L1774,187L1726,-134Z" fill="#3e3e3e" stroke="#3e3e3e" stroke-width="1.51"/><path d="M1656,-265L1434,-190L1726,-134Z" fill="#2f2f2f" stroke="#2f2f2f" stroke-width="1.51"/><path d="M1434,-190L1357,-123L1506,23Z" fill="#323232" stroke="#323232" stroke-width="1.51"/><path d="M1506,23L1306,281L1573,104Z" fill="#404040" stroke="#404040" stroke-width="1.51"/><path d="M1726,-134L1794,-295L1656,-265Z" fill="#2e2e2e" stroke="#2e2e2e" stroke-width="1.51"/><path d="M1943,-113L1794,-295L1726,-134Z" fill="#333333" stroke="#333333" stroke-width="1.51"/><path d="M1774,187L1943,-113L1726,-134Z" fill="#3b3b3b" stroke="#3b3b3b" stroke-width="1.51"/><path d="M1203,206L1306,281L1506,23Z" fill="#404040" stroke="#404040" stroke-width="1.51"/><path d="M1434,-190L1256,-184L1357,-123Z" fill="#2d2d2d" stroke="#2d2d2d" stroke-width="1.51"/><path d="M981,-313L1256,-184L1434,-190Z" fill="#282828" stroke="#282828" stroke-width="1.51"/><path d="M981,-313L1434,-190L1656,-265Z" fill="#292929" stroke="#292929" stroke-width="1.51"/><path d="M1703,465L1829,417L1774,187Z" fill="#515151" stroke="#515151" stroke-width="1.51"/><path d="M1203,206L1506,23L1357,-123Z" fill="#383838" stroke="#383838" stroke-width="1.51"/><path d="M1774,187L2104,203L1943,-113Z" fill="#444444" stroke="#444444" stroke-width="1.51"/><path d="M1703,465L1774,187L1573,104Z" fill="#4a4a4a" stroke="#4a4a4a" stroke-width="1.51"/><path d="M1397,407L1703,465L1573,104Z" fill="#4d4d4d" stroke="#4d4d4d" stroke-width="1.51"/><path d="M1306,281L1397,407L1573,104Z" fill="#474747" stroke="#474747" stroke-width="1.51"/><path d="M1102,-69L1203,206L1357,-123Z" fill="#353535" stroke="#353535" stroke-width="1.51"/><path d="M1306,281L1253,350L1397,407Z" fill="#4b4b4b" stroke="#4b4b4b" stroke-width="1.51"/><path d="M1974,425L2104,203L1774,187Z" fill="#4f4f4f" stroke="#4f4f4f" stroke-width="1.51"/><path d="M1943,-113L2083,-286L1794,-295Z" fill="#313131" stroke="#313131" stroke-width="1.51"/><path d="M2151,-109L2083,-286L1943,-113Z" fill="#363636" stroke="#363636" stroke-width="1.51"/><path d="M2104,203L2151,-109L1943,-113Z" fill="#404040" stroke="#404040" stroke-width="1.51"/><path d="M1203,206L1253,350L1306,281Z" fill="#464646" stroke="#464646" stroke-width="1.51"/><path d="M1256,-184L1102,-69L1357,-123Z" fill="#2e2e2e" stroke="#2e2e2e" stroke-width="1.51"/><path d="M1203,206L979,425L1253,350Z" fill="#484848" stroke="#484848" stroke-width="1.51"/><path d="M1829,417L1974,425L1774,187Z" fill="#525252" stroke="#525252" stroke-width="1.51"/><path d="M2015,504L1974,425L1898,613Z" fill="#5d5d5d" stroke="#5d5d5d" stroke-width="1.51"/><path d="M1102,-69L1009,10L1203,206Z" fill="#363636" stroke="#363636" stroke-width="1.51"/><path d="M1974,425L2272,373L2104,203Z" fill="#545454" stroke="#545454" stroke-width="1.51"/><path d="M1898,613L1974,425L1829,417Z" fill="#5c5c5c" stroke="#5c5c5c" stroke-width="1.51"/><path d="M1703,465L1898,613L1829,417Z" fill="#5b5b5b" stroke="#5b5b5b" stroke-width="1.51"/><path d="M1397,407L1686,645L1703,465Z" fill="#585858" stroke="#585858" stroke-width="1.51"/><path d="M1319,696L1686,645L1397,407Z" fill="#565656" stroke="#565656" stroke-width="1.51"/><path d="M2104,203L2300,107L2151,-109Z" fill="#454545" stroke="#454545" stroke-width="1.51"/><path d="M2151,-109L2275,-329L2083,-286Z" fill="#333333" stroke="#333333" stroke-width="1.51"/><path d="M2272,373L2300,107L2104,203Z" fill="#4f4f4f" stroke="#4f4f4f" stroke-width="1.51"/><path d="M1686,645L1898,613L1703,465Z" fill="#5a5a5a" stroke="#5a5a5a" stroke-width="1.51"/><path d="M2406,-57L2275,-329L2151,-109Z" fill="#393939" stroke="#393939" stroke-width="1.51"/><path d="M2083,-286L2275,-329L1794,-295Z" fill="#2f2f2f" stroke="#2f2f2f" stroke-width="1.51"/><path d="M1102,-69L981,-313L1009,10Z" fill="#2c2c2c" stroke="#2c2c2c" stroke-width="1.51"/><path d="M1256,-184L981,-313L1102,-69Z" fill="#292929" stroke="#292929" stroke-width="1.51"/><path d="M1794,-295L981,-313L1656,-265Z" fill="#282828" stroke="#282828" stroke-width="1.51"/><path d="M2275,-329L981,-313L1794,-295Z" fill="#292929" stroke="#292929" stroke-width="1.51"/><path d="M2418,479L2272,373L2333,612Z" fill="#626262" stroke="#626262" stroke-width="1.51"/><path d="M2015,504L2272,373L1974,425Z" fill="#5b5b5b" stroke="#5b5b5b" stroke-width="1.51"/><path d="M1009,10L892,92L1203,206Z" fill="#383838" stroke="#383838" stroke-width="1.51"/><path d="M724,24L892,92L1009,10Z" fill="#333333" stroke="#333333" stroke-width="1.51"/><path d="M2397,178L2406,-57L2300,107Z" fill="#484848" stroke="#484848" stroke-width="1.51"/><path d="M2300,107L2406,-57L2151,-109Z" fill="#424242" stroke="#424242" stroke-width="1.51"/><path d="M2272,373L2397,178L2300,107Z" fill="#505050" stroke="#505050" stroke-width="1.51"/><path d="M1121,605L1319,696L1397,407Z" fill="#535353" stroke="#535353" stroke-width="1.51"/><path d="M1121,605L1397,407L1253,350Z" fill="#515151" stroke="#515151" stroke-width="1.51"/><path d="M869,224L979,425L1203,206Z" fill="#434343" stroke="#434343" stroke-width="1.51"/><path d="M892,92L869,224L1203,206Z" fill="#3c3c3c" stroke="#3c3c3c" stroke-width="1.51"/><path d="M979,425L1121,605L1253,350Z" fill="#4f4f4f" stroke="#4f4f4f" stroke-width="1.51"/><path d="M2406,-57L2542,-338L2275,-329Z" fill="#363636" stroke="#363636" stroke-width="1.51"/><path d="M2397,178L2555,-93L2406,-57Z" fill="#464646" stroke="#464646" stroke-width="1.51"/><path d="M892,92L724,24L869,224Z" fill="#373737" stroke="#373737" stroke-width="1.51"/><path d="M869,224L759,350L979,425Z" fill="#444444" stroke="#444444" stroke-width="1.51"/><path d="M734,-310L724,24L1009,10Z" fill="#2b2b2b" stroke="#2b2b2b" stroke-width="1.51"/><path d="M2397,178L2685,191L2555,-93Z" fill="#4c4c4c" stroke="#4c4c4c" stroke-width="1.51"/><path d="M2272,373L2418,479L2397,178Z" fill="#595959" stroke="#595959" stroke-width="1.51"/><path d="M2333,612L2272,373L2015,504Z" fill="#606060" stroke="#606060" stroke-width="1.51"/><path d="M1898,613L2333,612L2015,504Z" fill="#5e5e5e" stroke="#5e5e5e" stroke-width="1.51"/><path d="M1686,645L2333,612L1898,613Z" fill="#5d5d5d" stroke="#5d5d5d" stroke-width="1.51"/><path d="M1319,696L2333,612L1686,645Z" fill="#5a5a5a" stroke="#5a5a5a" stroke-width="1.51"/><path d="M981,-313L734,-310L1009,10Z" fill="#262626" stroke="#262626" stroke-width="1.51"/><path d="M371,-308L734,-310L981,-313Z" fill="#1e1e1e" stroke="#1e1e1e" stroke-width="1.51"/><path d="M2275,-329L2542,-338L981,-313Z" fill="#2c2c2c" stroke="#2c2c2c" stroke-width="1.51"/><path d="M2555,-93L2542,-338L2406,-57Z" fill="#3c3c3c" stroke="#3c3c3c" stroke-width="1.51"/><path d="M724,24L759,350L869,224Z" fill="#3b3b3b" stroke="#3b3b3b" stroke-width="1.51"/><path d="M979,425L948,675L1121,605Z" fill="#505050" stroke="#505050" stroke-width="1.51"/><path d="M759,350L823,512L979,425Z" fill="#494949" stroke="#494949" stroke-width="1.51"/><path d="M1121,605L948,675L1319,696Z" fill="#525252" stroke="#525252" stroke-width="1.51"/><path d="M2667,369L2685,191L2397,178Z" fill="#565656" stroke="#565656" stroke-width="1.51"/><path d="M2333,612L2462,514L2418,479Z" fill="#636363" stroke="#636363" stroke-width="1.51"/><path d="M823,512L948,675L979,425Z" fill="#4e4e4e" stroke="#4e4e4e" stroke-width="1.51"/><path d="M599,-259L659,25L724,24Z" fill="#2a2a2a" stroke="#2a2a2a" stroke-width="1.51"/><path d="M724,24L659,25L759,350Z" fill="#363636" stroke="#363636" stroke-width="1.51"/><path d="M2667,369L2397,178L2418,479Z" fill="#5a5a5a" stroke="#5a5a5a" stroke-width="1.51"/><path d="M2555,-93L2706,-154L2542,-338Z" fill="#3c3c3c" stroke="#3c3c3c" stroke-width="1.51"/><path d="M734,-310L599,-259L724,24Z" fill="#242424" stroke="#242424" stroke-width="1.51"/><path d="M2804,-21L2706,-154L2555,-93Z" fill="#434343" stroke="#434343" stroke-width="1.51"/><path d="M2333,612L2571,553L2462,514Z" fill="#646464" stroke="#646464" stroke-width="1.51"/><path d="M2462,514L2667,369L2418,479Z" fill="#626262" stroke="#626262" stroke-width="1.51"/><path d="M514,149L646,436L759,350Z" fill="#404040" stroke="#404040" stroke-width="1.51"/><path d="M759,350L646,436L823,512Z" fill="#484848" stroke="#484848" stroke-width="1.51"/><path d="M823,512L649,607L948,675Z" fill="#4d4d4d" stroke="#4d4d4d" stroke-width="1.51"/><path d="M514,149L759,350L659,25Z" fill="#383838" stroke="#383838" stroke-width="1.51"/><path d="M2571,553L2667,369L2462,514Z" fill="#646464" stroke="#646464" stroke-width="1.51"/><path d="M339,97L514,149L659,25Z" fill="#313131" stroke="#313131" stroke-width="1.51"/><path d="M2966,283L2804,-21L2685,191Z" fill="#535353" stroke="#535353" stroke-width="1.51"/><path d="M2685,191L2804,-21L2555,-93Z" fill="#4a4a4a" stroke="#4a4a4a" stroke-width="1.51"/><path d="M265,666L649,607L646,436Z" fill="#494949" stroke="#494949" stroke-width="1.51"/><path d="M646,436L649,607L823,512Z" fill="#4c4c4c" stroke="#4c4c4c" stroke-width="1.51"/><path d="M2667,369L2862,396L2685,191Z" fill="#5c5c5c" stroke="#5c5c5c" stroke-width="1.51"/><path d="M2774,617L2862,396L2667,369Z" fill="#666666" stroke="#666666" stroke-width="1.51"/><path d="M2571,553L2774,617L2667,369Z" fill="#676767" stroke="#676767" stroke-width="1.51"/><path d="M2333,612L2774,617L2571,553Z" fill="#656565" stroke="#656565" stroke-width="1.51"/><path d="M3049,651L2774,617L2333,612Z" fill="#676767" stroke="#676767" stroke-width="1.51"/><path d="M599,-259L339,97L659,25Z" fill="#2a2a2a" stroke="#2a2a2a" stroke-width="1.51"/><path d="M514,149L301,306L646,436Z" fill="#3d3d3d" stroke="#3d3d3d" stroke-width="1.51"/><path d="M734,-310L371,-308L599,-259Z" fill="#1d1d1d" stroke="#1d1d1d" stroke-width="1.51"/><path d="M2542,-338L371,-308L981,-313Z" fill="#252525" stroke="#252525" stroke-width="1.51"/><path d="M3134,56L2938,-184L2804,-21Z" fill="#494949" stroke="#494949" stroke-width="1.51"/><path d="M2804,-21L2938,-184L2706,-154Z" fill="#434343" stroke="#434343" stroke-width="1.51"/><path d="M2706,-154L3024,-325L2542,-338Z" fill="#393939" stroke="#393939" stroke-width="1.51"/><path d="M371,-308L339,97L599,-259Z" fill="#232323" stroke="#232323" stroke-width="1.51"/><path d="M2862,396L2966,283L2685,191Z" fill="#5c5c5c" stroke="#5c5c5c" stroke-width="1.51"/><path d="M3004,292L2966,283L2862,396Z" fill="#5f5f5f" stroke="#5f5f5f" stroke-width="1.51"/><path d="M339,97L301,306L514,149Z" fill="#353535" stroke="#353535" stroke-width="1.51"/><path d="M183,144L301,306L339,97Z" fill="#343434" stroke="#343434" stroke-width="1.51"/><path d="M223,-36L261,44L339,97Z" fill="#2b2b2b" stroke="#2b2b2b" stroke-width="1.51"/><path d="M3049,651L3004,292L2862,396Z" fill="#686868" stroke="#686868" stroke-width="1.51"/><path d="M2966,283L3134,56L2804,-21Z" fill="#535353" stroke="#535353" stroke-width="1.51"/><path d="M2938,-184L3024,-325L2706,-154Z" fill="#3e3e3e" stroke="#3e3e3e" stroke-width="1.51"/><path d="M3275,-319L3024,-325L2938,-184Z" fill="#3d3d3d" stroke="#3d3d3d" stroke-width="1.51"/><path d="M371,-308L223,-36L339,97Z" fill="#252525" stroke="#252525" stroke-width="1.51"/><path d="M261,44L183,144L339,97Z" fill="#2e2e2e" stroke="#2e2e2e" stroke-width="1.51"/><path d="M223,-36L183,144L261,44Z" fill="#2c2c2c" stroke="#2c2c2c" stroke-width="1.51"/><path d="M3004,292L3134,56L2966,283Z" fill="#5a5a5a" stroke="#5a5a5a" stroke-width="1.51"/><path d="M-16,23L25,313L183,144Z" fill="#303030" stroke="#303030" stroke-width="1.51"/><path d="M371,-308L146,-276L223,-36Z" fill="#1e1e1e" stroke="#1e1e1e" stroke-width="1.51"/><path d="M3004,292L3136,244L3134,56Z" fill="#5a5a5a" stroke="#5a5a5a" stroke-width="1.51"/><path d="M3189,598L3136,244L3004,292Z" fill="#656565" stroke="#656565" stroke-width="1.51"/><path d="M73,416L265,666L301,306Z" fill="#434343" stroke="#434343" stroke-width="1.51"/><path d="M301,306L265,666L646,436Z" fill="#464646" stroke="#464646" stroke-width="1.51"/><path d="M649,607L265,666L948,675Z" fill="#4a4a4a" stroke="#4a4a4a" stroke-width="1.51"/><path d="M948,675L-347,695L1319,696Z" fill="#4a4a4a" stroke="#4a4a4a" stroke-width="1.51"/><path d="M2774,617L3049,651L2862,396Z" fill="#6a6a6a" stroke="#6a6a6a" stroke-width="1.51"/><path d="M1319,696L3049,651L2333,612Z" fill="#616161" stroke="#616161" stroke-width="1.51"/><path d="M25,313L73,416L301,306Z" fill="#3b3b3b" stroke="#3b3b3b" stroke-width="1.51"/><path d="M25,313L301,306L183,144Z" fill="#363636" stroke="#363636" stroke-width="1.51"/><path d="M-16,23L183,144L223,-36Z" fill="#2a2a2a" stroke="#2a2a2a" stroke-width="1.51"/><path d="M146,-276L-16,23L223,-36Z" fill="#222222" stroke="#222222" stroke-width="1.51"/><path d="M3024,-325L3275,-319L2542,-338Z" fill="#383838" stroke="#383838" stroke-width="1.51"/><path d="M3134,56L3275,-319L2938,-184Z" fill="#454545" stroke="#454545" stroke-width="1.51"/><path d="M3340,-72L3275,-319L3134,56Z" fill="#494949" stroke="#494949" stroke-width="1.51"/><path d="M3340,-72L3134,56L3376,80Z" fill="#525252" stroke="#525252" stroke-width="1.51"/><path d="M3049,651L3189,598L3004,292Z" fill="#6c6c6c" stroke="#6c6c6c" stroke-width="1.51"/><path d="M-202,440L54,512L73,416Z" fill="#404040" stroke="#404040" stroke-width="1.51"/><path d="M73,416L54,512L265,666Z" fill="#444444" stroke="#444444" stroke-width="1.51"/><path d="M3376,80L3134,56L3136,244Z" fill="#575757" stroke="#575757" stroke-width="1.51"/><path d="M3341,420L3376,80L3136,244Z" fill="#606060" stroke="#606060" stroke-width="1.51"/><path d="M3189,598L3341,420L3136,244Z" fill="#696969" stroke="#696969" stroke-width="1.51"/><path d="M25,313L-202,440L73,416Z" fill="#3c3c3c" stroke="#3c3c3c" stroke-width="1.51"/><path d="M-16,23L-143,168L25,313Z" fill="#2e2e2e" stroke="#2e2e2e" stroke-width="1.51"/><path d="M-240,37L-143,168L-16,23Z" fill="#282828" stroke="#282828" stroke-width="1.51"/><path d="M146,-276L-147,-197L-16,23Z" fill="#1e1e1e" stroke="#1e1e1e" stroke-width="1.51"/><path d="M-143,168L-202,440L25,313Z" fill="#363636" stroke="#363636" stroke-width="1.51"/><path d="M-147,-197L-240,37L-16,23Z" fill="#222222" stroke="#222222" stroke-width="1.51"/><path d="M-294,120L-202,440L-143,168Z" fill="#313131" stroke="#313131" stroke-width="1.51"/><path d="M54,512L-179,550L265,666Z" fill="#434343" stroke="#434343" stroke-width="1.51"/><path d="M-202,440L-179,550L54,512Z" fill="#414141" stroke="#414141" stroke-width="1.51"/><path d="M-147,-197L-272,-255L-240,37Z" fill="#1c1c1c" stroke="#1c1c1c" stroke-width="1.51"/><path d="M-240,37L-294,120L-143,168Z" fill="#292929" stroke="#292929" stroke-width="1.51"/><path d="M146,-276L-272,-255L-147,-197Z" fill="#181818" stroke="#181818" stroke-width="1.51"/><path d="M371,-308L-272,-255L146,-276Z" fill="#181818" stroke="#181818" stroke-width="1.51"/><path d="M-202,440L-347,695L-179,550Z" fill="#3f3f3f" stroke="#3f3f3f" stroke-width="1.51"/><path d="M-272,-255L-294,120L-240,37Z" fill="#212121" stroke="#212121" stroke-width="1.51"/><path d="M-294,120L-347,695L-202,440Z" fill="#3a3a3a" stroke="#3a3a3a" stroke-width="1.51"/><path d="M-179,550L-347,695L265,666Z" fill="#414141" stroke="#414141" stroke-width="1.51"/><path d="M265,666L-347,695L948,675Z" fill="#464646" stroke="#464646" stroke-width="1.51"/><path d="M-272,-255L-347,695L-294,120Z" fill="#2d2d2d" stroke="#2d2d2d" stroke-width="1.51"/></svg>